HIERARCHY
ROOT hip
{
  OFFSET 0 0 0
  CHANNELS 6 Xposition Yposition Zposition Zrotation Yrotation Xrotation
  JOINT abdomen
  {
    OFFSET 0 20.6881 -0.73152
    CHANNELS 3 Zrotation Xrotation Yrotation
    JOINT chest
    {
      OFFSET 0 11.7043 -0.48768
      CHANNELS 3 Zrotation Xrotation Yrotation
      JOINT neck
      {
        OFFSET 0 22.1894 -2.19456
        CHANNELS 3 Zrotation Xrotation Yrotation
        JOINT head
        {
          OFFSET -0.24384 7.07133 1.2192
          CHANNELS 3 Zrotation Xrotation Yrotation
          JOINT leftEye
          {
            OFFSET 4.14528 8.04674 8.04672
            CHANNELS 3 Zrotation Xrotation Yrotation
            End Site
            {
              OFFSET 1 0 0
            }
          }
          JOINT rightEye
          {
            OFFSET -3.6576 8.04674 8.04672
            CHANNELS 3 Zrotation Xrotation Yrotation
            End Site
            {
              OFFSET 1 0 0
            }
          }
        }
      }
      JOINT rCollar
      {
        OFFSET -2.68224 19.2634 -4.8768
        CHANNELS 3 Zrotation Xrotation Yrotation
        JOINT rShldr
        {
          OFFSET -8.77824 -1.95073 1.46304
          CHANNELS 3 Zrotation Xrotation Yrotation
          JOINT rForeArm
          {
            OFFSET -28.1742 -1.7115 0.48768
            CHANNELS 3 Zrotation Xrotation Yrotation
            JOINT rHand
            {
              OFFSET -22.5879 0.773209 7.07136
              CHANNELS 3 Zrotation Xrotation Yrotation
              JOINT rThumb1
              {
                OFFSET -1.2192 -0.487915 3.41376
                CHANNELS 3 Zrotation Xrotation Yrotation
                JOINT rThumb2
                {
                  OFFSET -3.37035 -0.52449 3.41376
                  CHANNELS 3 Zrotation Xrotation Yrotation
                  End Site
                  {
                    OFFSET -1.78271 -1.18214 1.43049
                  }
                }
              }
              JOINT rIndex1
              {
                OFFSET -7.75947 0.938293 5.60832
                CHANNELS 3 Zrotation Xrotation Yrotation
                JOINT rIndex2
                {
                  OFFSET -2.54057 -0.884171 1.56538
                  CHANNELS 3 Zrotation Xrotation Yrotation
                  End Site
                  {
                    OFFSET -1.62519 -0.234802 1.16502
                  }
                }
              }
              JOINT rMid1
              {
                OFFSET -8.24714 1.18213 3.41376
                CHANNELS 3 Zrotation Xrotation Yrotation
                JOINT rMid2
                {
                  OFFSET -3.10165 -0.590103 1.0647
                  CHANNELS 3 Zrotation Xrotation Yrotation
                  End Site
                  {
                    OFFSET -2.48547 -0.328903 0.83742
                  }
                }
              }
              JOINT rRing1
              {
                OFFSET -8.82822 0.546677 1.51678
                CHANNELS 3 Zrotation Xrotation Yrotation
                JOINT rRing2
                {
                  OFFSET -2.60934 -0.819778 -0.0198488
                  CHANNELS 3 Zrotation Xrotation Yrotation
                  End Site
                  {
                    OFFSET -2.33842 -0.294052 0.168128
                  }
                }
              }
              JOINT rPinky1
              {
                OFFSET -8.27202 -0.0477905 -0.4584
                CHANNELS 3 Zrotation Xrotation Yrotation
                JOINT rPinky2
                {
                  OFFSET -1.82734 -0.647385 -0.700984
                  CHANNELS 3 Zrotation Xrotation Yrotation
                  End Site
                  {
                    OFFSET -1.69225 -0.51767 -0.607171
                  }
                }
              }
            }
          }
        }
      }
      JOINT lCollar
      {
        OFFSET 2.68224 19.2634 -4.8768
        CHANNELS 3 Zrotation Xrotation Yrotation
        JOINT lShldr
        {
          OFFSET 8.77824 -1.95073 1.46304
          CHANNELS 3 Zrotation Xrotation Yrotation
          JOINT lForeArm
          {
            OFFSET 28.1742 -1.7115 0.48768
            CHANNELS 3 Zrotation Xrotation Yrotation
            JOINT lHand
            {
              OFFSET 22.5879 0.773209 7.07136
              CHANNELS 3 Zrotation Xrotation Yrotation
              JOINT lThumb1
              {
                OFFSET 1.2192 -0.487915 3.41376
                CHANNELS 3 Zrotation Xrotation Yrotation
                JOINT lThumb2
                {
                  OFFSET 3.37035 -0.52449 3.41376
                  CHANNELS 3 Zrotation Xrotation Yrotation
                  End Site
                  {
                    OFFSET 1.78271 -1.18214 1.43049
                  }
                }
              }
              JOINT lIndex1
              {
                OFFSET 7.75947 0.938293 5.60832
                CHANNELS 3 Zrotation Xrotation Yrotation
                JOINT lIndex2
                {
                  OFFSET 2.54057 -0.884171 1.56538
                  CHANNELS 3 Zrotation Xrotation Yrotation
                  End Site
                  {
                    OFFSET 1.62519 -0.234802 1.16502
                  }
                }
              }
              JOINT lMid1
              {
                OFFSET 8.24714 1.18213 3.41376
                CHANNELS 3 Zrotation Xrotation Yrotation
                JOINT lMid2
                {
                  OFFSET 3.10165 -0.590103 1.0647
                  CHANNELS 3 Zrotation Xrotation Yrotation
                  End Site
                  {
                    OFFSET 2.48547 -0.328903 0.83742
                  }
                }
              }
              JOINT lRing1
              {
                OFFSET 8.82822 0.546677 1.51678
                CHANNELS 3 Zrotation Xrotation Yrotation
                JOINT lRing2
                {
                  OFFSET 2.60934 -0.819778 -0.0198488
                  CHANNELS 3 Zrotation Xrotation Yrotation
                  End Site
                  {
                    OFFSET 2.33842 -0.294052 0.168128
                  }
                }
              }
              JOINT lPinky1
              {
                OFFSET 8.27202 -0.0477905 -0.4584
                CHANNELS 3 Zrotation Xrotation Yrotation
                JOINT lPinky2
                {
                  OFFSET 1.82734 -0.647385 -0.700984
                  CHANNELS 3 Zrotation Xrotation Yrotation
                  End Site
                  {
                    OFFSET 1.69225 -0.51767 -0.607171
                  }
                }
              }
            }
          }
        }
      }
    }
  }
  JOINT rButtock
  {
    OFFSET -8.77824 4.35084 1.2192
    CHANNELS 3 Zrotation Xrotation Yrotation
    JOINT rThigh
    {
      OFFSET 0 -1.70687 -2.19456
      CHANNELS 3 Zrotation Xrotation Yrotation
      JOINT rShin
      {
        OFFSET 0 -36.8199 0.73152
        CHANNELS 3 Zrotation Xrotation Yrotation
        JOINT rFoot
        {
          OFFSET 0.73152 -45.1104 -5.12064
          CHANNELS 3 Zrotation Xrotation Yrotation
          End Site
          {
            OFFSET -1.1221 -3.69964 12.103
          }
        }
      }
    }
  }
  JOINT lButtock
  {
    OFFSET 8.77824 4.35084 1.2192
    CHANNELS 3 Zrotation Xrotation Yrotation
    JOINT lThigh
    {
      OFFSET 0 -1.70687 -2.19456
      CHANNELS 3 Zrotation Xrotation Yrotation
      JOINT lShin
      {
        OFFSET 0 -36.8199 0.73152
        CHANNELS 3 Zrotation Xrotation Yrotation
        JOINT lFoot
        {
          OFFSET -0.73152 -45.1104 -5.12064
          CHANNELS 3 Zrotation Xrotation Yrotation
          End Site
          {
            OFFSET 1.1221 -3.69964 12.103
          }
        }
      }
    }
  }
}
MOTION
Frames:	8
Frame Time:	0.00833333
7.64527 84.1002 -51.5959 0.0 0.0 0.0 -1.51925 -0.00282958 -0.0413933 -0.418697 0.00102581 -0.072511 -2.33046e-14 -2.38542e-15 -2.98177e-16 -6.9615e-14 3.18055e-15 -8.96084e-16 -0.0 0.0 0.0 -0.0 0.0 0.0 -1.18295e-14 -2.21303e-17 4.96962e-17 -2.39818e-13 -9.75287e-16 -2.78299e-15 -4.18447e-12 1.23644e-12 -6.36111e-15 -4.79285e-11 -1.35678e-12 -6.77458e-13 -1.13052e-10 -2.5601e-13 -1.43761e-12 -1.95244e-10 -4.48458e-13 -2.48322e-12 -1.13045e-10 -2.52059e-13 -1.45351e-12 7.73091 5.47488 0.417314 -1.13052e-10 -2.55339e-13 -1.44397e-12 2.90554 0.965183 0.102902 -1.13035e-10 -2.54941e-13 -1.44159e-12 10.2786 0.731801 0.0259123 -1.13059e-10 -2.5524e-13 -1.43443e-12 2.22167 -0.733487 -0.20892 -1.17272e-14 -2.32951e-17 -2.48481e-16 -2.45749e-13 -3.78933e-16 -4.57205e-15 -4.18914e-12 -1.27163e-12 -1.59028e-14 -4.79283e-11 1.16041e-12 -6.39292e-13 -1.1306e-10 -2.4329e-13 -1.43125e-12 -1.95238e-10 -4.19833e-13 -2.46493e-12 -1.13067e-10 -2.41722e-13 -1.43125e-12 -7.73091 5.47488 -0.417314 -1.13061e-10 -2.4212e-13 -1.43125e-12 -2.90554 0.965183 -0.102902 -1.13074e-10 -2.42418e-13 -1.43284e-12 -10.2786 0.731801 -0.0259123 -1.13061e-10 -2.4371e-13 -1.44079e-12 -2.22167 -0.733487 0.20892 -2.03217e-16 0.0 -3.88251e-19 -0.640688 -1.92322 -0.00643381 -0.00925356 -2.07856 -0.0764183 -0.511993 3.99733 0.140288 2.03217e-16 0.0 3.88251e-19 -1.66989 -6.4978 0.154705 -0.00230955 6.20796 -0.0679736 0.534206 0.285504 -0.0665871
6.54262 82.4945 -54.2226 -3.9682 -4.5416 9.1838 -1.57238 -2.41381 0.415445 1.25241 0.765005 0.026027 0.294646 -1.08541 -0.0163928 -1.45598 2.57891 -0.0211049 -0.0 0.0 0.0 -0.0 0.0 0.0 6.15512e-15 1.68997e-13 2.30749e-14 21.1984 7.82807 1.81998 -3.81765 -1.66169 6.03959 0.0157773 -2.7916 -0.390662 -1.99169e-10 1.3886e-09 -1.2468e-09 -3.38492e-10 2.39561e-09 -2.1551e-09 -1.99155e-10 1.3886e-09 -1.24681e-09 7.73091 5.47488 0.417314 -1.99161e-10 1.3886e-09 -1.2468e-09 2.90554 0.965183 0.102902 -1.99154e-10 1.3886e-09 -1.2468e-09 10.2786 0.731801 0.0259123 -1.99175e-10 1.3886e-09 -1.24679e-09 2.22167 -0.733487 -0.20892 6.20876e-15 1.68997e-13 2.27585e-14 -21.8803 6.34331 -0.789974 5.56486 -2.87009 -8.28898 -0.00662466 -1.80559 0.253303 -2.02579e-10 1.0396e-09 5.27808e-10 -3.49595e-10 1.79776e-09 9.11938e-10 -2.02583e-10 1.03961e-09 5.27811e-10 -7.73091 5.47488 -0.417314 -2.02578e-10 1.03961e-09 5.27811e-10 -2.90554 0.965183 -0.102902 -2.02588e-10 1.03961e-09 5.27808e-10 -10.2786 0.731801 -0.0259123 -2.02576e-10 1.03961e-09 5.278e-10 -2.22167 -0.733487 0.20892 -2.03217e-16 0.0 -3.88251e-19 0.529499 -5.90038 0.39043 -0.00732604 4.35942 0.0354548 -0.603814 0.455661 -1.35069 2.03217e-16 0.0 3.88251e-19 -0.251679 -10.363 0.818033 -0.0106346 12.1139 -0.153783 0.676638 -2.5543 1.5262
6.54311 82.4912 -54.2243 -3.9737 -4.5453 9.1893 -1.58234 -4.96168 0.90163 3.01493 1.57267 0.130358 0.602652 -2.23 -0.0359335 -2.98536 5.28155 -0.0486779 -0.0 0.0 0.0 -0.0 0.0 0.0 2.75756e-14 3.54349e-13 5.05006e-14 43.0461 16.0849 3.86926 -7.47689 -3.35815 12.4438 -0.00922226 -5.76115 -0.809398 -3.20422e-10 2.94261e-09 -2.62148e-09 -5.41854e-10 5.07665e-09 -4.53142e-09 -3.20401e-10 2.9426e-09 -2.62149e-09 7.73091 5.47488 0.417314 -3.20407e-10 2.9426e-09 -2.62148e-09 2.90554 0.965183 0.102902 -3.20409e-10 2.94261e-09 -2.62149e-09 10.2786 0.731801 0.0259123 -3.20428e-10 2.94261e-09 -2.62148e-09 2.22167 -0.733487 -0.20892 2.75765e-14 3.54348e-13 5.01621e-14 -44.815 13.0488 -1.66094 10.5622 -5.7106 -17.129 0.00376402 -3.71394 0.521878 -3.25223e-10 2.14791e-09 1.11286e-09 -5.61174e-10 3.71429e-09 1.92272e-09 -3.25224e-10 2.14792e-09 1.11286e-09 -7.73091 5.47488 -0.417314 -3.25222e-10 2.14792e-09 1.11286e-09 -2.90554 0.965183 -0.102902 -3.25229e-10 2.14792e-09 1.11286e-09 -10.2786 0.731801 -0.0259123 -3.25217e-10 2.14792e-09 1.11285e-09 -2.22167 -0.733487 0.20892 -2.03217e-16 0.0 -3.88251e-19 1.83276 -10.1049 0.824229 -0.0329189 11.1636 0.156433 -0.902262 -3.28436 -2.93782 2.03217e-16 0.0 3.88251e-19 1.35189 -14.4482 1.53872 0.000709105 18.3584 -0.250609 1.00007 -5.54863 3.22603
6.52882 82.4926 -54.2163 -4.0218 -4.6223 9.1592 -1.56252 -7.23402 1.33867 4.58674 2.29295 0.223275 0.882071 -3.25622 -0.049249 -4.36221 7.73673 -0.0638318 -0.0 0.0 0.0 -0.0 0.0 0.0 4.21244e-14 5.07037e-13 6.91254e-14 61.9924 23.385 5.89477 -10.4184 -4.76394 18.1761 -0.0679114 -8.37323 -1.18321 -3.71401e-10 4.16631e-09 -3.73752e-09 -6.24987e-10 7.18773e-09 -6.46033e-09 -3.71374e-10 4.1663e-09 -3.73752e-09 7.73091 5.47488 0.417314 -3.7138e-10 4.1663e-09 -3.73751e-09 2.90554 0.965183 0.102902 -3.71391e-10 4.16631e-09 -3.73752e-09 10.2786 0.731801 0.0259123 -3.71407e-10 4.16631e-09 -3.73751e-09 2.22167 -0.733487 -0.20892 4.20807e-14 5.07037e-13 6.87725e-14 -65.0904 19.015 -2.49144 14.2706 -7.89092 -25.0893 0.0282021 -5.41633 0.762939 -3.81615e-10 3.1193e-09 1.58629e-09 -6.58309e-10 5.39412e-09 2.74074e-09 -3.81614e-10 3.11931e-09 1.58629e-09 -7.73091 5.47488 -0.417314 -3.81613e-10 3.1193e-09 1.5863e-09 -2.90554 0.965183 -0.102902 -3.81617e-10 3.11931e-09 1.58629e-09 -10.2786 0.731801 -0.0259123 -3.81607e-10 3.11931e-09 1.58628e-09 -2.22167 -0.733487 0.20892 -2.03217e-16 0.0 -3.88251e-19 3.03954 -13.8521 1.21324 -0.0812138 17.2352 0.27096 -1.34206 -6.60831 -4.36087 2.03217e-16 0.0 3.88251e-19 2.8665 -18.0839 2.21617 0.0307685 23.9256 -0.345623 1.43866 -8.20864 4.75607
6.52654 82.495 -54.1849 -4.0179 -4.6685 9.1144 -1.55065 -8.81921 1.6437 5.68735 2.79474 0.287485 1.09174 -3.9865 -0.0469135 -5.36407 9.57329 -0.0471668 -0.0 0.0 0.0 -0.0 0.0 0.0 3.9494e-14 5.78066e-13 6.5748e-14 74.8696 28.39 7.44212 -12.2907 -5.65459 22.1739 -0.126597 -10.0932 -1.43351 -2.46696e-10 4.56424e-09 -4.20691e-09 -4.07546e-10 7.87391e-09 -7.27072e-09 -2.46666e-10 4.56423e-09 -4.20692e-09 7.73091 5.47488 0.417314 -2.46672e-10 4.56423e-09 -4.20691e-09 2.90554 0.965183 0.102902 -2.46688e-10 4.56424e-09 -4.20691e-09 10.2786 0.731801 0.0259123 -2.46702e-10 4.56424e-09 -4.20691e-09 2.22167 -0.733487 -0.20892 3.94261e-14 5.78066e-13 6.54002e-14 -79.1187 23.1475 -3.10404 16.4531 -9.11513 -30.6351 0.0537936 -6.6042 0.932334 -2.72377e-10 3.74839e-09 1.78067e-09 -4.69335e-10 6.48216e-09 3.0769e-09 -2.72376e-10 3.74839e-09 1.78068e-09 -7.73091 5.47488 -0.417314 -2.72374e-10 3.74839e-09 1.78068e-09 -2.90554 0.965183 -0.102902 -2.72377e-10 3.7484e-09 1.78067e-09 -10.2786 0.731801 -0.0259123 -2.72368e-10 3.7484e-09 1.78067e-09 -2.22167 -0.733487 0.20892 -2.03217e-16 0.0 -3.88251e-19 3.87981 -16.4588 1.46296 -0.13063 21.4758 0.356889 -1.73937 -8.91328 -5.33659 2.03217e-16 0.0 3.88251e-19 3.95769 -20.6043 2.72583 0.065078 27.8001 -0.418762 1.82545 -10.0575 5.81858
6.54196 82.4981 -54.1471 -3.9196 -4.6734 9.077 -1.60095 -9.44398 1.75594 6.13806 2.98693 0.311301 1.20658 -4.31269 -0.0252974 -5.84969 10.5559 0.00931314 -0.0 0.0 0.0 -0.0 0.0 0.0 7.36651e-15 5.34838e-13 2.25011e-14 79.8722 30.2445 7.98849 -12.9722 -5.97005 23.7121 -0.14691 -10.5382 -1.49921 2.16506e-10 3.70424e-09 -3.75961e-09 3.90418e-10 6.38935e-09 -6.49492e-09 2.16536e-10 3.70423e-09 -3.75962e-09 7.73091 5.47488 0.417314 2.1653e-10 3.70423e-09 -3.75961e-09 2.90554 0.965183 0.102902 2.16514e-10 3.70424e-09 -3.75961e-09 10.2786 0.731801 0.0259123 2.16501e-10 3.70425e-09 -3.7596e-09 2.22167 -0.733487 -0.20892 7.30677e-15 5.34839e-13 2.21901e-14 -84.6014 24.7328 -3.32564 17.1807 -9.47439 -32.6964 0.0660126 -7.08345 1.00101 1.5927e-10 4.04093e-09 1.58223e-09 2.76706e-10 6.98859e-09 2.73491e-09 1.5927e-10 4.04094e-09 1.58225e-09 -7.73091 5.47488 -0.417314 1.59273e-10 4.04094e-09 1.58224e-09 -2.90554 0.965183 -0.102902 1.59269e-10 4.04094e-09 1.58224e-09 -10.2786 0.731801 -0.0259123 1.59278e-10 4.04094e-09 1.58222e-09 -2.22167 -0.733487 0.20892 -2.03217e-16 0.0 -3.88251e-19 4.13635 -17.4723 1.48389 -0.154336 23.1552 0.392173 -1.89633 -9.80714 -5.64296 2.03217e-16 0.0 3.88251e-19 4.35203 -21.5712 2.96386 0.0838173 29.3043 -0.449466 1.98421 -10.7872 6.18617
6.55024 82.5006 -54.1129 -3.8448 -4.6777 9.0463 -1.70361 -9.38307 1.72865 6.12477 2.95815 0.30623 1.25359 -4.34975 0.0102232 -5.96663 10.928 0.0945874 -0.0 0.0 0.0 -0.0 0.0 0.0 -4.5571e-14 4.09994e-13 -4.87923e-14 79.4072 29.8707 7.72064 -12.8694 -5.91555 23.4849 -0.132986 -10.0743 -1.43155 9.17086e-10 1.95058e-09 -2.65807e-09 1.59544e-09 3.36262e-09 -4.58708e-09 9.17113e-10 1.95057e-09 -2.65808e-09 7.73091 5.47488 0.417314 9.17107e-10 1.95057e-09 -2.65807e-09 2.90554 0.965183 0.102902 9.17095e-10 1.95058e-09 -2.65807e-09 10.2786 0.731801 0.0259123 9.17083e-10 1.95058e-09 -2.65806e-09 2.22167 -0.733487 -0.20892 -4.55996e-14 4.09996e-13 -4.90439e-14 -84.0291 24.5014 -3.2414 17.0036 -9.34242 -32.2458 0.0650888 -7.05607 0.997062 8.16898e-10 4.0863e-09 1.1033e-09 1.4132e-09 7.06782e-09 1.90869e-09 8.16896e-10 4.0863e-09 1.10333e-09 -7.73091 5.47488 -0.417314 8.16901e-10 4.0863e-09 1.10331e-09 -2.90554 0.965183 -0.102902 8.16895e-10 4.08631e-09 1.10331e-09 -10.2786 0.731801 -0.0259123 8.16904e-10 4.0863e-09 1.1033e-09 -2.22167 -0.733487 0.20892 -2.03217e-16 0.0 -3.88251e-19 3.96498 -17.3482 1.33749 -0.152654 23.0052 0.387864 -1.84184 -9.69772 -5.46164 2.03217e-16 0.0 3.88251e-19 4.2244 -21.4301 2.99682 0.0856526 29.1153 -0.446304 1.94497 -10.7225 6.04898
6.55774 82.5014 -54.0988 -3.779 -4.6494 9.0342 -1.80479 -9.04731 1.64792 5.9142 2.847 0.289727 1.26991 -4.25481 0.0555946 -5.92673 11.0364 0.199831 -0.0 0.0 0.0 -0.0 0.0 0.0 -9.81186e-14 2.52401e-13 -1.16798e-13 76.7427 28.621 7.13809 -12.4499 -5.71106 22.5486 -0.109106 -9.28961 -1.31746 1.56455e-09 2.40757e-12 -1.31308e-09 2.70772e-09 4.65405e-13 -2.25887e-09 1.56458e-09 2.40091e-12 -1.31309e-09 7.73091 5.47488 0.417314 1.56457e-09 2.39936e-12 -1.31308e-09 2.90554 0.965183 0.102902 1.56456e-09 2.40513e-12 -1.31308e-09 10.2786 0.731801 0.0259123 1.56455e-09 2.40835e-12 -1.31307e-09 2.22167 -0.733487 -0.20892 -9.81131e-14 2.52402e-13 -1.16989e-13 -81.0306 23.528 -3.032 16.4502 -9.00148 -30.7798 0.0585111 -6.80779 0.961454 1.42008e-09 3.80451e-09 5.15638e-10 2.45545e-09 6.58118e-09 8.94424e-10 1.42007e-09 3.80451e-09 5.15664e-10 -7.73091 5.47488 -0.417314 1.42008e-09 3.80451e-09 5.15644e-10 -2.90554 0.965183 -0.102902 1.42007e-09 3.80451e-09 5.15642e-10 -10.2786 0.731801 -0.0259123 1.42008e-09 3.80451e-09 5.1563e-10 -2.22167 -0.733487 0.20892 -2.03217e-16 0.0 -3.88251e-19 3.64612 -16.7656 1.14964 -0.1407 22.1199 0.367786 -1.7099 -9.18822 -5.10146 2.03217e-16 0.0 3.88251e-19 3.8998 -20.8414 2.94601 0.0801103 28.2503 -0.4296 1.83165 -10.3412 5.72562
